name analog
datacolumns 19
datarows 22
range 0.1645 0.17500000000000002
endheader
time	ground_force_vx	ground_force_vy	ground_force_vz	ground_force_px	ground_force_py	ground_force_pz	l_ground_force_vx	l_ground_force_vy	l_ground_force_vz	l_ground_force_px	l_ground_force_py	l_ground_force_pz	ground_torque_x	ground_torque_y	ground_torque_z	l_ground_torque_x	l_ground_torque_y	l_ground_torque_z
0.1645	-0.0	-0.0	-0.0	-0.0	-0.0	-0.0	7.640347957611084	-2.2455594539642334	-740.6652221679688	-0.0	-0.0	-0.0	-0.0	-0.0	-0.0	200966.859375	-6665.30712890625	1275.9488525390625
0.165	-0.0	-0.0	-0.0	-0.0	-0.0	-0.0	8.148046493530273	-2.2698216438293457	-740.0087280273438	-0.0	-0.0	-0.0	-0.0	-0.0	-0.0	200815.84375	-6568.96337890625	1313.422607421875
0.1655	-0.0	-0.0	-0.0	-0.0	-0.0	-0.0	8.536188125610352	-2.406782627105713	-738.647705078125	-0.0	-0.0	-0.0	-0.0	-0.0	-0.0	200373.515625	-6523.20166015625	1397.4437255859375
0.166	-0.0	-0.0	-0.0	-0.0	-0.0	-0.0	9.119760513305664	-2.2963638305664062	-736.5010375976562	-0.0	-0.0	-0.0	-0.0	-0.0	-0.0	199633.234375	-6184.41015625	1391.23779296875
0.1665	-0.0	-0.0	-0.0	-0.0	-0.0	-0.0	8.398480415344238	-2.52170991897583	-732.6596069335938	-0.0	-0.0	-0.0	-0.0	-0.0	-0.0	198476.421875	-5908.2216796875	1162.914306640625
0.167	-0.0	-0.0	-0.0	-0.0	-0.0	-0.0	8.179292678833008	-3.117598056793213	-728.5379638671875	-0.0	-0.0	-0.0	-0.0	-0.0	-0.0	197405.5625	-5712.1103515625	1067.2821044921875
0.1675	-0.0	-0.0	-0.0	-0.0	-0.0	-0.0	8.145812034606934	-3.945827007293701	-724.0765380859375	-0.0	-0.0	-0.0	-0.0	-0.0	-0.0	195970.828125	-5252.40185546875	1002.572509765625
0.168	-0.0	-0.0	-0.0	-0.0	-0.0	-0.0	8.437321662902832	-5.096468448638916	-719.5629272460938	-0.0	-0.0	-0.0	-0.0	-0.0	-0.0	194297.140625	-4771.5244140625	870.4832763671875
0.1685	-0.0	-0.0	-0.0	-0.0	-0.0	-0.0	7.244946002960205	-6.039418697357178	-711.3323974609375	-0.0	-0.0	-0.0	-0.0	-0.0	-0.0	192618.078125	-4185.77099609375	639.5170288085938
0.169	-0.0	-0.0	-0.0	-0.0	-0.0	-0.0	6.619010925292969	-6.993470668792725	-705.2864990234375	-0.0	-0.0	-0.0	-0.0	-0.0	-0.0	191052.28125	-3565.951416015625	301.2637634277344
0.1695	-0.0	-0.0	-0.0	-0.0	-0.0	-0.0	5.320067405700684	-7.194453716278076	-700.2391357421875	-0.0	-0.0	-0.0	-0.0	-0.0	-0.0	190004.75	-3008.81591796875	-139.40911865234375
0.17	-0.0	-0.0	-0.0	-0.0	-0.0	-0.0	4.576383590698242	-6.717472553253174	-697.6463012695312	-0.0	-0.0	-0.0	-0.0	-0.0	-0.0	189241.78125	-2040.271240234375	-469.5616760253906
0.1705	-0.0	-0.0	-0.0	-0.0	-0.0	-0.0	3.9465079307556152	-6.094148635864258	-697.4871215820312	-0.0	-0.0	-0.0	-0.0	-0.0	-0.0	189452.828125	-1521.0177001953125	-725.9013061523438
0.171	-0.0	-0.0	-0.0	-0.0	-0.0	-0.0	3.3395256996154785	-5.282995223999023	-696.7186889648438	-0.0	-0.0	-0.0	-0.0	-0.0	-0.0	189880.0625	-1170.1005859375	-1014.3848876953124
0.1715	-0.0	-0.0	-0.0	-0.0	-0.0	-0.0	2.627185821533203	-5.197194576263428	-697.1249389648438	-0.0	-0.0	-0.0	-0.0	-0.0	-0.0	190191.21875	-408.4048156738281	-1270.7042236328125
0.17200000000000001	-0.0	-0.0	-0.0	-0.0	-0.0	-0.0	2.2582204341888428	-5.649198055267334	-697.401611328125	-0.0	-0.0	-0.0	-0.0	-0.0	-0.0	190560.890625	-139.0746307373047	-1462.0047607421875
0.17250000000000001	-0.0	-0.0	-0.0	-0.0	-0.0	-0.0	2.210598945617676	-4.926773071289063	-699.0831298828125	-0.0	-0.0	-0.0	-0.0	-0.0	-0.0	191283.9375	359.3646545410156	-1652.2449951171875
0.17300000000000001	-0.0	-0.0	-0.0	-0.0	-0.0	-0.0	2.18619155883789	-4.068603515625	-700.4710083007812	-0.0	-0.0	-0.0	-0.0	-0.0	-0.0	192315.5625	502.3887023925781	-1722.3582763671875
0.17350000000000002	-0.0	-0.0	-0.0	-0.0	-0.0	-0.0	2.5800821781158447	-3.114708423614502	-702.6854248046875	-0.0	-0.0	-0.0	-0.0	-0.0	-0.0	193319.953125	549.3057250976562	-1718.8353271484375
0.17400000000000002	-0.0	-0.0	-0.0	-0.0	-0.0	-0.0	3.4717044830322266	-2.068793535232544	-705.6353759765625	-0.0	-0.0	-0.0	-0.0	-0.0	-0.0	194470.546875	869.068115234375	-1608.466796875
0.17450000000000002	-0.0	-0.0	-0.0	-0.0	-0.0	-0.0	1.9922358989715576	-1.4371380805969238	-707.2837524414062	-0.0	-0.0	-0.0	-0.0	-0.0	-0.0	195745.375	805.2017822265625	-1992.205810546875
0.17500000000000002	-0.0	-0.0	-0.0	-0.0	-0.0	-0.0	1.4698939323425293	1.0410549640655518	-711.4688110351562	-0.0	-0.0	-0.0	-0.0	-0.0	-0.0	196760.265625	656.8267822265625	-2323.05908203125
